<?xml version="1.0" encoding="utf-8"?>
<!-- Svg Vector Icons : http://www.onlinewebfonts.com/icon -->
<!DOCTYPE svg PUBLIC "-//W3C//DTD SVG 1.1//EN" "http://www.w3.org/Graphics/SVG/1.1/DTD/svg11.dtd">
<svg version="1.1" xmlns="http://www.w3.org/2000/svg" xmlns:xlink="http://www.w3.org/1999/xlink" x="0px" y="0px" viewBox="0 0 1000 1000" enable-background="new 0 0 1000 1000" xml:space="preserve">
<metadata> Svg Vector Icons : http://www.onlinewebfonts.com/icon </metadata>
<g><path d="M286.6,931.5c-14,0-25.4-11.4-25.4-25.4V93.9c0-14,11.4-25.4,25.4-25.4c14,0,25.4,11.4,25.4,25.4v812.1C312,920.1,300.7,931.5,286.6,931.5z"/><path d="M17.4,636.9c9.9-9.9,26-9.9,35.9,0l251.2,251.2c9.9,9.9,9.9,26,0,35.9c-9.9,9.9-26,9.9-35.9,0L17.4,672.8C7.5,662.9,7.5,646.8,17.4,636.9z"/><path d="M553.5,639.2c-9.8-9.8-25.8-9.8-35.6,0L268.6,888.5c-9.8,9.8-9.8,25.8,0,35.6c9.8,9.9,25.8,9.9,35.6,0l249.3-249.3C563.3,665,563.3,649,553.5,639.2z"/><path d="M712.7,931.5c-14,0-25.4-11.4-25.4-25.4V93.9c0-14,11.4-25.4,25.4-25.4s25.4,11.4,25.4,25.4v812.1C738.1,920.1,726.7,931.5,712.7,931.5z"/><path d="M440.8,360.8c10,9.9,26.2,9.9,36.2,0l253.6-249.3c10-9.8,10-25.8,0-35.6c-10-9.8-26.2-9.8-36.2,0L440.8,325.2C430.7,335,430.7,351,440.8,360.8z"/><path d="M982.6,358.5c-9.9,9.8-26,9.8-36,0L695,111.2c-9.9-9.8-9.9-25.6,0-35.3c9.9-9.8,26-9.8,35.9,0l251.6,247.3C992.5,332.9,992.5,348.7,982.6,358.5z"/></g>
</svg>